<svg width="18" height="17" viewBox="0 0 18 17" fill="none" xmlns="http://www.w3.org/2000/svg">
<path d="M8.85269 0.302246C10.2096 0.302246 11.511 0.841281 12.4704 1.80077C13.4299 2.76026 13.969 4.0616 13.969 5.41852V6.27124H17.3798V7.97666H16.3847L15.7392 15.7219C15.7215 15.9349 15.6243 16.1336 15.467 16.2784C15.3097 16.4232 15.1037 16.5037 14.8899 16.5038H2.81548C2.60166 16.5037 2.39569 16.4232 2.23839 16.2784C2.08108 16.1336 1.98393 15.9349 1.96618 15.7219L1.31982 7.97666H0.325562V6.27124H3.73641V5.41852C3.73641 4.0616 4.27545 2.76026 5.23494 1.80077C6.19443 0.841281 7.49577 0.302246 8.85269 0.302246ZM9.70541 9.68209H7.99998V13.0929H9.70541V9.68209ZM6.29455 9.68209H4.58913V13.0929H6.29455V9.68209ZM13.1163 9.68209H11.4108V13.0929H13.1163V9.68209ZM8.85269 2.00767C7.9776 2.00767 7.13599 2.34401 6.50192 2.94713C5.86786 3.55024 5.48986 4.37399 5.4461 5.24798L5.44184 5.41852V6.27124H12.2635V5.41852C12.2635 4.54343 11.9272 3.70182 11.3241 3.06776C10.721 2.43369 9.89723 2.05569 9.02324 2.01194L8.85269 2.00767Z" fill="#5E4B42"/>
</svg>
