<svg width="17" height="17" viewBox="0 0 17 17" fill="none" xmlns="http://www.w3.org/2000/svg">
<path d="M11.8043 0.609813C11.3077 0.408322 10.788 0.254534 10.2604 0.152364C9.73814 0.0512627 9.20308 0 8.67016 0C8.13724 0 7.60219 0.0512627 7.07995 0.152364C6.55237 0.254534 6.03298 0.408322 5.53602 0.609813C5.0298 0.814864 4.54209 1.07189 4.08642 1.3727C3.15159 1.98999 2.33067 2.81091 1.71339 3.74574C1.41257 4.20176 1.15555 4.68947 0.950496 5.19533C0.749005 5.69194 0.595217 6.21133 0.493048 6.73927C0.391946 7.26151 0.340683 7.79656 0.340683 8.32948C0.340683 8.8624 0.391946 9.39745 0.493048 9.91969C0.595217 10.4473 0.749005 10.9667 0.950496 11.4636C1.11069 11.8584 1.30186 12.2418 1.52115 12.6078L0 17L4.39222 15.4788C4.75818 15.6981 5.14158 15.8893 5.53637 16.0495C6.03334 16.251 6.55273 16.4048 7.08031 16.507C7.60255 16.6081 8.1376 16.6593 8.67052 16.6593C9.20344 16.6593 9.73849 16.6081 10.2607 16.507C10.7883 16.4048 11.3077 16.251 11.8047 16.0495C12.3109 15.8441 12.7986 15.5874 13.2543 15.2866C13.7217 14.978 14.161 14.6191 14.5604 14.2197C14.9598 13.8203 15.3187 13.381 15.6273 12.9136C15.9281 12.4579 16.1848 11.9702 16.3902 11.464C16.5917 10.9674 16.7455 10.4476 16.8476 9.92005C16.9487 9.39745 17 8.8624 17 8.32984C17 7.79692 16.9487 7.26186 16.8476 6.73962C16.7455 6.21204 16.5917 5.69265 16.3902 5.19569C16.1848 4.68947 15.9281 4.20176 15.6273 3.74609C15.3187 3.27868 14.9598 2.83939 14.5604 2.43996C14.161 2.04054 13.7217 1.6817 13.2543 1.37306C12.7982 1.07153 12.3105 0.814864 11.8043 0.609813ZM14.4265 4.53817C14.675 4.91481 14.8872 5.31779 15.0566 5.73573C15.2232 6.14654 15.3503 6.57587 15.4351 7.01231C15.5187 7.44484 15.5614 7.88769 15.5614 8.32912C15.5614 8.7702 15.5191 9.21341 15.4354 9.64594C15.351 10.0824 15.2236 10.5121 15.057 10.9225C14.8875 11.3408 14.6754 11.7438 14.4269 12.1201C13.916 12.8936 13.2354 13.5743 12.4618 14.0851C12.0852 14.3336 11.6822 14.5458 11.2643 14.7152C10.8535 14.8819 10.4241 15.0089 9.98769 15.0937C9.55516 15.1773 9.11195 15.2197 8.67088 15.2197C8.22945 15.2197 7.78659 15.1773 7.35406 15.0933C6.91762 15.0089 6.48829 14.8815 6.07748 14.7149C5.65955 14.5454 5.25656 14.3333 4.87993 14.0848L4.58374 13.889L2.32996 14.6697L3.11065 12.4159L2.91521 12.1197C2.66637 11.7431 2.45456 11.3401 2.28511 10.9222C2.1185 10.5113 1.99141 10.082 1.90669 9.64558C1.82303 9.21305 1.78067 8.7702 1.78067 8.32877C1.78067 7.88734 1.82303 7.44449 1.90669 7.01196C1.99106 6.57551 2.1185 6.14583 2.28511 5.73537C2.45456 5.31744 2.66673 4.91446 2.91521 4.53782C3.4257 3.76425 4.10671 3.08324 4.88028 2.57275C5.25692 2.32391 5.6599 2.1121 6.07784 1.94264C6.48865 1.77604 6.91798 1.64895 7.35442 1.56422C7.78695 1.48057 8.23016 1.43785 8.67123 1.4382C9.11266 1.4382 9.55551 1.48057 9.98804 1.56422C10.4245 1.64859 10.8542 1.77604 11.2646 1.94264C11.6826 2.1121 12.0855 2.32427 12.4622 2.57275C12.8488 2.82799 13.213 3.12525 13.5437 3.45632C13.874 3.78775 14.1713 4.15157 14.4265 4.53817Z" fill="white"/>
<path d="M9.70726 6.30921C9.67736 6.3772 9.68555 6.46264 9.73859 6.51462C9.79092 6.56659 9.96998 6.68727 10.0857 6.77342C10.2363 6.88592 10.3865 6.99876 10.5321 7.11767C10.5741 7.15184 10.6154 7.18673 10.6556 7.22268C10.6944 7.25757 10.7564 7.30207 10.7674 7.35476C10.7752 7.39071 10.7599 7.43058 10.7482 7.46405C10.5698 7.97382 10.3117 8.45655 9.98244 8.88481C9.965 8.90759 9.81513 9.113 9.63464 9.29348C9.45415 9.47397 9.24874 9.62384 9.22596 9.64129C8.7977 9.97058 8.31498 10.2287 7.8052 10.407C7.77174 10.4188 7.73187 10.4341 7.69591 10.4262C7.64358 10.4149 7.59873 10.3533 7.56384 10.3145C7.52788 10.2742 7.493 10.2326 7.45882 10.1909C7.33992 10.0453 7.22707 9.89511 7.11458 9.74452C7.02843 9.62883 6.90739 9.45012 6.85577 9.39743C6.80344 9.34475 6.71836 9.33656 6.65037 9.36611C6.56528 9.40348 4.97578 10.1055 4.7896 10.2162C4.64934 10.2995 4.76397 11.1717 4.85866 11.3589C5.10109 11.8385 5.62831 12.14 6.15055 12.2343C6.4802 12.2938 6.82053 12.2842 7.15089 12.2372C7.54533 12.1809 7.93087 12.0695 8.30074 11.9228C8.72295 11.7555 9.12593 11.5412 9.50506 11.2917C9.9237 11.0161 10.3135 10.6972 10.6688 10.3437C10.6716 10.3412 10.6823 10.3305 10.6848 10.3276C11.0383 9.97236 11.3573 9.58255 11.6328 9.1639C11.8824 8.78477 12.0967 8.38179 12.264 7.95958C12.4107 7.58971 12.5221 7.20417 12.5783 6.80973C12.6257 6.47937 12.6349 6.13905 12.5755 5.8094C12.4811 5.28716 12.1796 4.75994 11.7001 4.51751C11.5128 4.42281 10.6407 4.30818 10.5574 4.44844C10.4463 4.63463 9.74428 6.22413 9.70726 6.30921Z" fill="white"/>
</svg>
