<svg width="14" height="14" viewBox="0 0 14 14" fill="none" xmlns="http://www.w3.org/2000/svg">
<path d="M5.6 2.39024H8.4C8.4 2.028 8.2525 1.68059 7.98995 1.42444C7.7274 1.16829 7.3713 1.02439 7 1.02439C6.6287 1.02439 6.2726 1.16829 6.01005 1.42444C5.7475 1.68059 5.6 2.028 5.6 2.39024ZM4.55 2.39024C4.55 2.07635 4.61337 1.76554 4.7365 1.47554C4.85962 1.18554 5.04008 0.922041 5.26759 0.700086C5.49509 0.478132 5.76518 0.302068 6.06243 0.181947C6.35967 0.0618255 6.67826 0 7 0C7.32174 0 7.64033 0.0618255 7.93757 0.181947C8.23482 0.302068 8.50491 0.478132 8.73241 0.700086C8.95992 0.922041 9.14038 1.18554 9.2635 1.47554C9.38663 1.76554 9.45 2.07635 9.45 2.39024H13.475C13.6142 2.39024 13.7478 2.44421 13.8462 2.54026C13.9447 2.63632 14 2.7666 14 2.90244C14 3.03828 13.9447 3.16856 13.8462 3.26462C13.7478 3.36067 13.6142 3.41463 13.475 3.41463H12.551L11.732 11.6856C11.6692 12.3193 11.3666 12.9075 10.8834 13.3354C10.4001 13.7633 9.77082 14.0002 9.1182 14H4.8818C4.2293 14.0001 3.60017 13.7631 3.11706 13.3352C2.63396 12.9073 2.33151 12.3192 2.2687 11.6856L1.449 3.41463H0.525C0.385761 3.41463 0.252225 3.36067 0.153769 3.26462C0.0553123 3.16856 0 3.03828 0 2.90244C0 2.7666 0.0553123 2.63632 0.153769 2.54026C0.252225 2.44421 0.385761 2.39024 0.525 2.39024H4.55ZM5.95 5.63415C5.95 5.4983 5.89469 5.36803 5.79623 5.27197C5.69777 5.17591 5.56424 5.12195 5.425 5.12195C5.28576 5.12195 5.15223 5.17591 5.05377 5.27197C4.95531 5.36803 4.9 5.4983 4.9 5.63415V10.7561C4.9 10.8919 4.95531 11.0222 5.05377 11.1183C5.15223 11.2143 5.28576 11.2683 5.425 11.2683C5.56424 11.2683 5.69777 11.2143 5.79623 11.1183C5.89469 11.0222 5.95 10.8919 5.95 10.7561V5.63415ZM8.575 5.12195C8.43576 5.12195 8.30223 5.17591 8.20377 5.27197C8.10531 5.36803 8.05 5.4983 8.05 5.63415V10.7561C8.05 10.8919 8.10531 11.0222 8.20377 11.1183C8.30223 11.2143 8.43576 11.2683 8.575 11.2683C8.71424 11.2683 8.84777 11.2143 8.94623 11.1183C9.04469 11.0222 9.1 10.8919 9.1 10.7561V5.63415C9.1 5.4983 9.04469 5.36803 8.94623 5.27197C8.84777 5.17591 8.71424 5.12195 8.575 5.12195Z" fill="#5E4B42"/>
</svg>
