<svg width="17" height="17" viewBox="0 0 17 17" fill="none" xmlns="http://www.w3.org/2000/svg">
<path d="M13.1245 6.25H11.8745C11.874 5.75287 11.6763 5.27625 11.3248 4.92472C10.9733 4.5732 10.4966 4.3755 9.99951 4.375V3.125C10.828 3.12599 11.6223 3.45555 12.2081 4.04139C12.794 4.62722 13.1235 5.4215 13.1245 6.25Z" fill="#5E4B42"/>
<path d="M15.6244 6.25001H14.3744C14.3731 5.09009 13.9117 3.97806 13.0915 3.15788C12.2713 2.33769 11.1593 1.87633 9.9994 1.87501V0.625005C11.4907 0.62666 12.9205 1.21982 13.975 2.27436C15.0296 3.32889 15.6227 4.75867 15.6244 6.25001ZM10.8325 11.5513L12.2325 10.1513C12.4199 9.96381 12.6582 9.83548 12.9178 9.78215C13.1775 9.72882 13.447 9.75285 13.6932 9.85125L15.3982 10.5338C15.6495 10.6343 15.8649 10.8078 16.0166 11.032C16.1683 11.2561 16.2494 11.5206 16.2494 11.7913V14.8919C16.2498 15.0762 16.2127 15.2586 16.1402 15.428C16.0676 15.5975 15.9613 15.7503 15.8277 15.8772C15.694 16.0041 15.5359 16.1024 15.363 16.1661C15.19 16.2297 15.0059 16.2575 14.8219 16.2475C2.87065 15.5038 0.456901 5.38126 0.00877635 1.50501C-0.0129276 1.3155 0.00573433 1.12355 0.063535 0.941779C0.121336 0.760006 0.216965 0.59253 0.344133 0.450366C0.471302 0.308202 0.627127 0.194572 0.80136 0.11695C0.975593 0.0393275 1.16429 -0.00052777 1.35503 5.27715e-06H4.40065C4.67132 -3.41413e-06 4.93578 0.0810875 5.15992 0.232817C5.38407 0.384547 5.5576 0.599956 5.65815 0.851255L6.34003 2.55626C6.43843 2.80236 6.46246 3.07194 6.40913 3.33157C6.3558 3.5912 6.22747 3.82948 6.04003 4.01688L4.64003 5.41688C4.64003 5.41688 5.41628 10.8744 10.8325 11.5513Z" fill="#5E4B42"/>
</svg>
