<svg width="19" height="11" viewBox="0 0 19 11" fill="none" xmlns="http://www.w3.org/2000/svg">
<path fill-rule="evenodd" clip-rule="evenodd" d="M9.29616 10.9539H10.4318C10.4318 10.9539 10.7748 10.9155 10.9501 10.724C11.1113 10.5481 11.1061 10.2178 11.1061 10.2178C11.1061 10.2178 11.0839 8.67139 11.7911 8.44367C12.4884 8.2192 13.3837 9.93821 14.3325 10.5992C15.0501 11.0993 15.5954 10.9899 15.5954 10.9899L18.1327 10.9539C18.1327 10.9539 19.46 10.8708 18.8306 9.81172C18.7791 9.72521 18.464 9.02832 16.944 7.59652C15.3528 6.09791 15.5661 6.34037 17.4826 3.74815C18.6498 2.16949 19.1163 1.20576 18.9705 0.79302C18.8316 0.399764 17.9731 0.503646 17.9731 0.503646L15.1162 0.52157C15.1162 0.52157 14.9043 0.492308 14.7473 0.587634C14.5938 0.680856 14.4952 0.898668 14.4952 0.898668C14.4952 0.898668 14.0429 2.12019 13.4401 3.15921C12.1679 5.35132 11.6592 5.46736 11.4512 5.33102C10.9674 5.01374 11.0883 4.05667 11.0883 3.37655C11.0883 1.25207 11.4059 0.366291 10.47 0.137005C10.1595 0.0609606 9.93075 0.0106491 9.13652 0.00243363C8.11708 -0.00809034 7.25447 0.00562507 6.76593 0.248491C6.44091 0.410017 6.19015 0.769868 6.34296 0.790576C6.53183 0.816105 6.95936 0.907698 7.18603 1.2207C7.47888 1.62502 7.46864 2.53267 7.46864 2.53267C7.46864 2.53267 7.63691 5.0335 7.07577 5.34406C6.69073 5.55711 6.16245 5.12217 5.02827 3.13335C4.44726 2.11463 4.00843 0.988427 4.00843 0.988427C4.00843 0.988427 3.92393 0.778016 3.77299 0.665375C3.58994 0.528903 3.33416 0.485653 3.33416 0.485653L0.619281 0.503646C0.619281 0.503646 0.211827 0.515188 0.0620931 0.695046C-0.0711152 0.855146 0.0514561 1.18587 0.0514561 1.18587C0.0514561 1.18587 2.17677 6.23207 4.58348 8.77507C6.79049 11.1069 9.29616 10.9539 9.29616 10.9539Z" fill="white"/>
</svg>
